# xmcd CD database file
#
# Track frame offsets:
#	150
#	16680
#	32757
#	43209
#	55074
#	71319
#	87474
#	106386
#	132573
#	147396
#	160227
#	175503
#	192159
#	220326
#
# Disc length: 3441 seconds
#
# Revision: 1
# Processed by: cddbd v1.5.2PL0 Copyright (c) Steve Scherf et al.
# Submitted via: CDex 1.51
#
DISCID=c20d6f0e
DTITLE=Various Artist - Les Classiques de Noël
DYEAR=2004
DGENRE=Chants de Noël
TTITLE0=Gounod/Bach - Ave Maria
TTITLE1=Folklore - Il est né le divin Enfant
TTITLE2=Adam/Roquemaure - Minuit Chrétiens
TTITLE3=Folklore - Les Anges dans nos Campagnes
TTITLE4=Bach - Jésus que ma Joie demeure
TTITLE5=Mendelssohn - Ave Maria
TTITLE6=Haendel - Le Messie - For unto us a Child is born
TTITLE7=Tchaikovsky - Valse des Flocons de Neige
TTITLE8=Bruckner - Ave Maria
TTITLE9=Folklore - Douce Nuit
TTITLE10=Corelli - Concerto N°8 pour la Nuit de Noël, en si mineur
TTITLE11=Haendel - Le Messie - Alleluia
TTITLE12=Liszt - Ave Maria
TTITLE13=Bach - Oratorio de Noël, BWV 248
EXTD=YEAR: 2004
EXTT0=
EXTT1=
EXTT2=
EXTT3=
EXTT4=
EXTT5=
EXTT6=
EXTT7=
EXTT8=
EXTT9=
EXTT10=
EXTT11=
EXTT12=
EXTT13=
PLAYORDER=
